<svg xmlns="http://www.w3.org/2000/svg" xmlns:xlink="http://www.w3.org/1999/xlink" width="1920" zoomAndPan="magnify" viewBox="0 0 1440 809.999993" height="1080" preserveAspectRatio="xMidYMid meet" version="1.0"><path fill="#0097b2" d="M 102.601562 365.101562 C 91.925781 383.71875 96.480469 407.480469 102.425781 428.277344 C 108.363281 449.082031 115.394531 471.378906 108.746094 491.945312 C 106.734375 498.164062 103.492188 504.078125 103.023438 510.621094 C 102.128906 523.117188 111.933594 534.210938 123.136719 538.671875 C 134.34375 543.128906 146.710938 542.53125 158.695312 542.285156 C 170.683594 542.039062 183.230469 542.347656 193.773438 548.308594 C 215.175781 560.40625 220.523438 590.539062 238.761719 607.375 C 252.613281 620.160156 272.558594 623.675781 290.878906 621.117188 C 309.199219 618.566406 326.375 610.632812 343.261719 602.792969 C 368.277344 591.175781 393.484375 579.449219 415.777344 562.84375 C 436.5 547.40625 454.777344 527.316406 464.367188 502.675781 C 473.960938 478.035156 473.863281 448.464844 460.316406 425.949219 C 449.195312 407.480469 429.222656 392.636719 428.625 370.824219 C 428.273438 358.007812 435.09375 345.445312 432.859375 332.835938 C 427.75 304.035156 388.46875 299.707031 366.535156 302.886719 C 340.285156 306.6875 318.363281 322.140625 300.042969 341.355469 C 288.1875 353.78125 276.980469 369.335938 259.199219 371.839844 C 232.707031 375.570312 205.699219 355.371094 181.492188 347.152344 C 155.40625 338.289062 118.820312 336.800781 102.601562 365.101562 " fill-opacity="1" fill-rule="nonzero"/><path fill="#f2efe7" d="M 509.90625 365.101562 C 499.234375 383.71875 503.789062 407.480469 509.730469 428.277344 C 515.671875 449.082031 522.699219 471.378906 516.050781 491.945312 C 514.042969 498.164062 510.800781 504.078125 510.332031 510.621094 C 509.433594 523.117188 519.238281 534.210938 530.445312 538.671875 C 541.648438 543.128906 554.015625 542.53125 566.003906 542.285156 C 577.988281 542.039062 590.535156 542.347656 601.082031 548.308594 C 622.480469 560.40625 627.828125 590.539062 646.066406 607.375 C 659.917969 620.160156 679.863281 623.675781 698.183594 621.117188 C 716.503906 618.566406 733.679688 610.632812 750.570312 602.792969 C 775.585938 591.175781 800.792969 579.449219 823.082031 562.84375 C 843.808594 547.40625 862.085938 527.316406 871.675781 502.675781 C 881.265625 478.035156 881.171875 448.464844 867.621094 425.949219 C 856.5 407.480469 836.527344 392.636719 835.929688 370.824219 C 835.578125 358.007812 842.398438 345.445312 840.164062 332.835938 C 835.054688 304.035156 795.773438 299.707031 773.839844 302.886719 C 747.59375 306.6875 725.667969 322.140625 707.347656 341.355469 C 695.496094 353.78125 684.285156 369.335938 666.503906 371.839844 C 640.011719 375.570312 613.003906 355.371094 588.796875 347.152344 C 562.710938 338.289062 526.128906 336.800781 509.90625 365.101562 " fill-opacity="1" fill-rule="nonzero"/><path fill="#000000" d="M 933.621094 347.265625 C 922.949219 365.886719 927.503906 389.644531 933.445312 410.445312 C 939.386719 431.246094 946.414062 453.542969 939.765625 474.109375 C 937.757812 480.328125 934.515625 486.246094 934.046875 492.789062 C 933.148438 505.28125 942.953125 516.378906 954.160156 520.835938 C 965.363281 525.292969 977.730469 524.695312 989.71875 524.449219 C 1001.703125 524.203125 1014.25 524.515625 1024.796875 530.476562 C 1046.195312 542.570312 1051.542969 572.707031 1069.78125 589.539062 C 1083.632812 602.324219 1103.578125 605.839844 1121.898438 603.285156 C 1140.21875 600.730469 1157.394531 592.796875 1174.285156 584.957031 C 1199.300781 573.339844 1224.507812 561.613281 1246.796875 545.007812 C 1267.523438 529.570312 1285.800781 509.484375 1295.390625 484.839844 C 1304.980469 460.199219 1304.886719 430.632812 1291.335938 408.117188 C 1280.214844 389.644531 1260.242188 374.800781 1259.644531 352.988281 C 1259.292969 340.171875 1266.113281 327.609375 1263.878906 315 C 1258.769531 286.203125 1219.488281 281.871094 1197.554688 285.050781 C 1171.308594 288.851562 1149.382812 304.304688 1131.0625 323.519531 C 1119.210938 335.949219 1108 351.5 1090.222656 354.003906 C 1063.726562 357.738281 1036.71875 337.535156 1012.511719 329.316406 C 986.425781 320.457031 949.84375 318.964844 933.621094 347.265625 " fill-opacity="1" fill-rule="nonzero"/></svg>