<svg xmlns="http://www.w3.org/2000/svg" xmlns:xlink="http://www.w3.org/1999/xlink" width="1920" zoomAndPan="magnify" viewBox="0 0 1440 809.999993" height="1080" preserveAspectRatio="xMidYMid meet" version="1.0"><defs><g/></defs><path stroke-linecap="butt" transform="matrix(0.75, 0, 0, 0.75, 44.042498, 369.750001)" fill="none" stroke-linejoin="miter" d="M 0.000628191 53.000001 L 1802.552802 53.000001 " stroke="#0097b2" stroke-width="106" stroke-opacity="1" stroke-miterlimit="4"/><g fill="#000000" fill-opacity="1"><g transform="translate(190.889843, 486.749996)"><g><path d="M 18.015625 0 L 18.015625 -154 L 71.140625 -154 L 71.140625 -137.796875 L 71.75 -137.796875 C 85.5625 -151.597656 100.269531 -158.5 115.875 -158.5 C 123.476562 -158.5 131.03125 -157.5 138.53125 -155.5 C 146.039062 -153.5 153.25 -150.394531 160.15625 -146.1875 C 167.0625 -141.988281 172.664062 -136.035156 176.96875 -128.328125 C 181.269531 -120.628906 183.421875 -111.675781 183.421875 -101.46875 L 183.421875 0 L 130.28125 0 L 130.28125 -87.0625 C 130.28125 -95.0625 127.726562 -102.0625 122.625 -108.0625 C 117.53125 -114.070312 110.878906 -117.078125 102.671875 -117.078125 C 94.660156 -117.078125 87.398438 -113.972656 80.890625 -107.765625 C 74.390625 -101.566406 71.140625 -94.664062 71.140625 -87.0625 L 71.140625 0 Z M 18.015625 0 "/></g></g></g><g fill="#000000" fill-opacity="1"><g transform="translate(389.323333, 486.749996)"><g><path d="M 68.140625 -154 L 68.140625 -80.75 C 68.140625 -65.539062 70.441406 -54.734375 75.046875 -48.328125 C 79.648438 -41.921875 87.457031 -38.71875 98.46875 -38.71875 C 109.476562 -38.71875 117.28125 -41.921875 121.875 -48.328125 C 126.476562 -54.734375 128.78125 -65.539062 128.78125 -80.75 L 128.78125 -154 L 181.921875 -154 L 181.921875 -67.84375 C 181.921875 -42.226562 175.265625 -23.765625 161.953125 -12.453125 C 148.648438 -1.148438 127.488281 4.5 98.46875 4.5 C 69.445312 4.5 48.28125 -1.148438 34.96875 -12.453125 C 21.664062 -23.765625 15.015625 -42.226562 15.015625 -67.84375 L 15.015625 -154 Z M 68.140625 -154 "/></g></g></g><g fill="#000000" fill-opacity="1"><g transform="translate(586.255819, 486.749996)"><g><path d="M 99.96875 -114.984375 C 89.957031 -114.984375 81.347656 -111.28125 74.140625 -103.875 C 66.941406 -96.46875 63.34375 -87.5625 63.34375 -77.15625 C 63.34375 -66.539062 66.941406 -57.53125 74.140625 -50.125 C 81.347656 -42.726562 89.957031 -39.03125 99.96875 -39.03125 C 104.769531 -39.03125 109.320312 -39.628906 113.625 -40.828125 C 117.925781 -42.023438 121.078125 -43.226562 123.078125 -44.4375 L 125.78125 -46.234375 L 143.796875 -9.3125 C 142.398438 -8.3125 140.445312 -7.054688 137.9375 -5.546875 C 135.4375 -4.046875 129.734375 -2 120.828125 0.59375 C 111.921875 3.195312 102.363281 4.5 92.15625 4.5 C 69.539062 4.5 49.675781 -3.453125 32.5625 -19.359375 C 15.457031 -35.273438 6.90625 -54.335938 6.90625 -76.546875 C 6.90625 -98.960938 15.457031 -118.222656 32.5625 -134.328125 C 49.675781 -150.441406 69.539062 -158.5 92.15625 -158.5 C 102.363281 -158.5 111.769531 -157.296875 120.375 -154.890625 C 128.988281 -152.492188 135.09375 -150.097656 138.6875 -147.703125 L 143.796875 -144.09375 L 125.78125 -107.765625 C 119.175781 -112.578125 110.570312 -114.984375 99.96875 -114.984375 Z M 99.96875 -114.984375 "/></g></g></g><g fill="#000000" fill-opacity="1"><g transform="translate(733.655029, 486.749996)"><g><path d="M 27.015625 -154 L 27.015625 -211.34375 L 80.15625 -211.34375 L 80.15625 -154 L 112.578125 -154 L 112.578125 -113.484375 L 80.15625 -113.484375 L 80.15625 -64.546875 C 80.15625 -50.335938 84.15625 -43.234375 92.15625 -43.234375 C 94.164062 -43.234375 96.269531 -43.628906 98.46875 -44.421875 C 100.664062 -45.222656 102.363281 -46.023438 103.5625 -46.828125 L 105.375 -48.03125 L 118.578125 -5.109375 C 107.171875 1.296875 94.160156 4.5 79.546875 4.5 C 69.546875 4.5 60.941406 2.75 53.734375 -0.75 C 46.523438 -4.25 41.070312 -8.953125 37.375 -14.859375 C 33.675781 -20.765625 31.023438 -26.96875 29.421875 -33.46875 C 27.816406 -39.976562 27.015625 -46.9375 27.015625 -54.34375 L 27.015625 -113.484375 L 4.796875 -113.484375 L 4.796875 -154 Z M 27.015625 -154 "/></g></g></g><g fill="#000000" fill-opacity="1"><g transform="translate(852.234811, 486.749996)"><g><path d="M 32.5625 -18.3125 C 15.457031 -33.519531 6.90625 -53.03125 6.90625 -76.84375 C 6.90625 -100.664062 15.8125 -120.226562 33.625 -135.53125 C 51.4375 -150.84375 73.453125 -158.5 99.671875 -158.5 C 125.484375 -158.5 147.242188 -150.796875 164.953125 -135.390625 C 182.671875 -119.984375 191.53125 -100.46875 191.53125 -76.84375 C 191.53125 -53.226562 182.875 -33.765625 165.5625 -18.453125 C 148.25 -3.148438 126.285156 4.5 99.671875 4.5 C 72.046875 4.5 49.675781 -3.101562 32.5625 -18.3125 Z M 73.703125 -102.96875 C 66.796875 -96.164062 63.34375 -87.457031 63.34375 -76.84375 C 63.34375 -66.238281 66.644531 -57.582031 73.25 -50.875 C 79.851562 -44.175781 88.5625 -40.828125 99.375 -40.828125 C 109.78125 -40.828125 118.332031 -44.226562 125.03125 -51.03125 C 131.738281 -57.832031 135.09375 -66.441406 135.09375 -76.859375 C 135.09375 -87.460938 131.640625 -96.164062 124.734375 -102.96875 C 117.828125 -109.769531 109.375 -113.171875 99.375 -113.171875 C 89.164062 -113.171875 80.609375 -109.769531 73.703125 -102.96875 Z M 73.703125 -102.96875 "/></g></g></g><g fill="#000000" fill-opacity="1"><g transform="translate(1050.668301, 486.749996)"><g><path d="M 18.015625 0 L 18.015625 -154 L 71.140625 -154 L 71.140625 -137.796875 L 71.75 -137.796875 C 85.5625 -151.597656 100.269531 -158.5 115.875 -158.5 C 123.476562 -158.5 131.03125 -157.5 138.53125 -155.5 C 146.039062 -153.5 153.25 -150.394531 160.15625 -146.1875 C 167.0625 -141.988281 172.664062 -136.035156 176.96875 -128.328125 C 181.269531 -120.628906 183.421875 -111.675781 183.421875 -101.46875 L 183.421875 0 L 130.28125 0 L 130.28125 -87.0625 C 130.28125 -95.0625 127.726562 -102.0625 122.625 -108.0625 C 117.53125 -114.070312 110.878906 -117.078125 102.671875 -117.078125 C 94.660156 -117.078125 87.398438 -113.972656 80.890625 -107.765625 C 74.390625 -101.566406 71.140625 -94.664062 71.140625 -87.0625 L 71.140625 0 Z M 18.015625 0 "/></g></g></g><path stroke-linecap="butt" transform="matrix(0.75, 0, 0, 0.75, 205.854416, 270.960124)" fill="none" stroke-linejoin="miter" d="M 0.00140385 11.001085 L 685.52748 11.001085 " stroke="#000000" stroke-width="22" stroke-opacity="1" stroke-miterlimit="4"/><path stroke-linecap="butt" transform="matrix(0.75, 0, 0, 0.75, 866.457443, 270.960124)" fill="none" stroke-linejoin="miter" d="M -0.000548509 11.001085 L 493.999476 11.001085 " stroke="#000000" stroke-width="22" stroke-opacity="1" stroke-miterlimit="4"/></svg>